<svg width="25" height="25" viewBox="0 0 25 25" fill="none" xmlns="http://www.w3.org/2000/svg">
<mask id="mask0_245_13" style="mask-type:alpha" maskUnits="userSpaceOnUse" x="0" y="0" width="25" height="25">
<rect x="0.0585938" y="0.320801" width="24" height="24" fill="#D9D9D9"/>
</mask>
<g mask="url(#mask0_245_13)">
<path d="M10.0586 12.3208C8.95859 12.3208 8.01693 11.9291 7.23359 11.1458C6.45026 10.3625 6.05859 9.4208 6.05859 8.3208C6.05859 7.2208 6.45026 6.27913 7.23359 5.4958C8.01693 4.71247 8.95859 4.3208 10.0586 4.3208C11.1586 4.3208 12.1003 4.71247 12.8836 5.4958C13.6669 6.27913 14.0586 7.2208 14.0586 8.3208C14.0586 9.4208 13.6669 10.3625 12.8836 11.1458C12.1003 11.9291 11.1586 12.3208 10.0586 12.3208ZM2.05859 20.3208V17.5208C2.05859 16.9708 2.20026 16.4541 2.48359 15.9708C2.76693 15.4875 3.15859 15.1208 3.65859 14.8708C4.50859 14.4375 5.46693 14.0708 6.53359 13.7708C7.60026 13.4708 8.77526 13.3208 10.0586 13.3208H10.4086C10.5086 13.3208 10.6086 13.3375 10.7086 13.3708C10.5753 13.6708 10.4628 13.9833 10.3711 14.3083C10.2794 14.6333 10.2086 14.9708 10.1586 15.3208H10.0586C8.87526 15.3208 7.81276 15.4708 6.87109 15.7708C5.92943 16.0708 5.15859 16.3708 4.55859 16.6708C4.40859 16.7541 4.28776 16.8708 4.19609 17.0208C4.10443 17.1708 4.05859 17.3375 4.05859 17.5208V18.3208H10.3586C10.4586 18.6708 10.5919 19.0166 10.7586 19.3583C10.9253 19.7 11.1086 20.0208 11.3086 20.3208H2.05859ZM16.0586 21.3208L15.7586 19.8208C15.5586 19.7375 15.3711 19.65 15.1961 19.5583C15.0211 19.4666 14.8419 19.3541 14.6586 19.2208L13.2086 19.6708L12.2086 17.9708L13.3586 16.9708C13.3253 16.7375 13.3086 16.5208 13.3086 16.3208C13.3086 16.1208 13.3253 15.9041 13.3586 15.6708L12.2086 14.6708L13.2086 12.9708L14.6586 13.4208C14.8419 13.2875 15.0211 13.175 15.1961 13.0833C15.3711 12.9916 15.5586 12.9041 15.7586 12.8208L16.0586 11.3208H18.0586L18.3586 12.8208C18.5586 12.9041 18.7461 12.9958 18.9211 13.0958C19.0961 13.1958 19.2753 13.3208 19.4586 13.4708L20.9086 12.9708L21.9086 14.7208L20.7586 15.7208C20.7919 15.9208 20.8086 16.1291 20.8086 16.3458C20.8086 16.5625 20.7919 16.7708 20.7586 16.9708L21.9086 17.9708L20.9086 19.6708L19.4586 19.2208C19.2753 19.3541 19.0961 19.4666 18.9211 19.5583C18.7461 19.65 18.5586 19.7375 18.3586 19.8208L18.0586 21.3208H16.0586ZM17.0586 18.3208C17.6086 18.3208 18.0794 18.125 18.4711 17.7333C18.8628 17.3416 19.0586 16.8708 19.0586 16.3208C19.0586 15.7708 18.8628 15.3 18.4711 14.9083C18.0794 14.5166 17.6086 14.3208 17.0586 14.3208C16.5086 14.3208 16.0378 14.5166 15.6461 14.9083C15.2544 15.3 15.0586 15.7708 15.0586 16.3208C15.0586 16.8708 15.2544 17.3416 15.6461 17.7333C16.0378 18.125 16.5086 18.3208 17.0586 18.3208ZM10.0586 10.3208C10.6086 10.3208 11.0794 10.125 11.4711 9.7333C11.8628 9.34163 12.0586 8.8708 12.0586 8.3208C12.0586 7.7708 11.8628 7.29997 11.4711 6.9083C11.0794 6.51663 10.6086 6.3208 10.0586 6.3208C9.50859 6.3208 9.03776 6.51663 8.64609 6.9083C8.25443 7.29997 8.05859 7.7708 8.05859 8.3208C8.05859 8.8708 8.25443 9.34163 8.64609 9.7333C9.03776 10.125 9.50859 10.3208 10.0586 10.3208Z" fill="#1C1B1F"/>
</g>
</svg>
