<svg width="25" height="25" viewBox="0 0 25 25" fill="none" xmlns="http://www.w3.org/2000/svg">
<mask id="mask0_245_19" style="mask-type:alpha" maskUnits="userSpaceOnUse" x="0" y="0" width="25" height="25">
<rect x="0.835938" y="0.21582" width="24" height="24" fill="#D9D9D9"/>
</mask>
<g mask="url(#mask0_245_19)">
<path d="M12.8359 12.2158C11.7359 12.2158 10.7943 11.8242 10.0109 11.0408C9.2276 10.2575 8.83594 9.31582 8.83594 8.21582C8.83594 7.11582 9.2276 6.17415 10.0109 5.39082C10.7943 4.60749 11.7359 4.21582 12.8359 4.21582C13.9359 4.21582 14.8776 4.60749 15.6609 5.39082C16.4443 6.17415 16.8359 7.11582 16.8359 8.21582C16.8359 9.31582 16.4443 10.2575 15.6609 11.0408C14.8776 11.8242 13.9359 12.2158 12.8359 12.2158ZM4.83594 20.2158V17.4158C4.83594 16.8492 4.98177 16.3283 5.27344 15.8533C5.5651 15.3783 5.9526 15.0158 6.43594 14.7658C7.46927 14.2492 8.51927 13.8617 9.58594 13.6033C10.6526 13.345 11.7359 13.2158 12.8359 13.2158C13.9359 13.2158 15.0193 13.345 16.0859 13.6033C17.1526 13.8617 18.2026 14.2492 19.2359 14.7658C19.7193 15.0158 20.1068 15.3783 20.3984 15.8533C20.6901 16.3283 20.8359 16.8492 20.8359 17.4158V20.2158H4.83594ZM6.83594 18.2158H18.8359V17.4158C18.8359 17.2325 18.7901 17.0658 18.6984 16.9158C18.6068 16.7658 18.4859 16.6492 18.3359 16.5658C17.4359 16.1158 16.5276 15.7783 15.6109 15.5533C14.6943 15.3283 13.7693 15.2158 12.8359 15.2158C11.9026 15.2158 10.9776 15.3283 10.0609 15.5533C9.14427 15.7783 8.23594 16.1158 7.33594 16.5658C7.18594 16.6492 7.0651 16.7658 6.97344 16.9158C6.88177 17.0658 6.83594 17.2325 6.83594 17.4158V18.2158ZM12.8359 10.2158C13.3859 10.2158 13.8568 10.02 14.2484 9.62832C14.6401 9.23665 14.8359 8.76582 14.8359 8.21582C14.8359 7.66582 14.6401 7.19499 14.2484 6.80332C13.8568 6.41165 13.3859 6.21582 12.8359 6.21582C12.2859 6.21582 11.8151 6.41165 11.4234 6.80332C11.0318 7.19499 10.8359 7.66582 10.8359 8.21582C10.8359 8.76582 11.0318 9.23665 11.4234 9.62832C11.8151 10.02 12.2859 10.2158 12.8359 10.2158Z" fill="#1C1B1F"/>
</g>
</svg>
